<mxfile host="app.diagrams.net" modified="2021-09-30T17:56:37.662Z" agent="5.0 (Macintosh; Intel Mac OS X 10_15_7) AppleWebKit/537.36 (KHTML, like Gecko) Chrome/92.0.4515.134 Safari/537.36" etag="sZNC1GJOleiphBcH6sQZ" version="15.2.9" type="github">
  <diagram id="xRnur_EDUO22pD7-YR2M" name="Page-1">
    <mxGraphModel dx="1240" dy="976" grid="1" gridSize="10" guides="1" tooltips="1" connect="1" arrows="1" fold="1" page="1" pageScale="1" pageWidth="1600" pageHeight="900" math="0" shadow="0">
      <root>
        <mxCell id="0" />
        <mxCell id="1" parent="0" />
        <mxCell id="yHdRcdkT7Z2g40atPfmT-1" style="edgeStyle=orthogonalEdgeStyle;rounded=0;orthogonalLoop=1;jettySize=auto;html=1;exitX=1;exitY=0.5;exitDx=0;exitDy=0;entryX=0;entryY=0.5;entryDx=0;entryDy=0;startArrow=ERmany;startFill=0;endArrow=ERmany;endFill=0;" parent="1" source="yHdRcdkT7Z2g40atPfmT-2" target="yHdRcdkT7Z2g40atPfmT-21" edge="1">
          <mxGeometry relative="1" as="geometry" />
        </mxCell>
        <mxCell id="yHdRcdkT7Z2g40atPfmT-2" value="normal_bam" style="whiteSpace=wrap;html=1;" parent="1" vertex="1">
          <mxGeometry x="140" y="472" width="80" height="30" as="geometry" />
        </mxCell>
        <mxCell id="yHdRcdkT7Z2g40atPfmT-3" style="edgeStyle=orthogonalEdgeStyle;rounded=0;orthogonalLoop=1;jettySize=auto;html=1;exitX=1;exitY=0.5;exitDx=0;exitDy=0;entryX=0;entryY=0.5;entryDx=0;entryDy=0;startArrow=ERmany;startFill=0;endArrow=ERmany;endFill=0;" parent="1" source="yHdRcdkT7Z2g40atPfmT-4" target="yHdRcdkT7Z2g40atPfmT-21" edge="1">
          <mxGeometry relative="1" as="geometry" />
        </mxCell>
        <mxCell id="yHdRcdkT7Z2g40atPfmT-4" value="tumor_bam" style="whiteSpace=wrap;html=1;" parent="1" vertex="1">
          <mxGeometry x="140" y="524" width="80" height="30" as="geometry" />
        </mxCell>
        <mxCell id="yHdRcdkT7Z2g40atPfmT-5" value="octopus" style="swimlane;fontStyle=1;childLayout=stackLayout;horizontal=1;startSize=26;fillColor=none;horizontalStack=0;resizeParent=1;resizeParentMax=0;resizeLast=0;collapsible=1;marginBottom=0;direction=east;" parent="1" vertex="1">
          <mxGeometry x="270" y="150" width="210" height="546" as="geometry">
            <mxRectangle x="270" y="344" width="90" height="26" as="alternateBounds" />
          </mxGeometry>
        </mxCell>
        <mxCell id="yHdRcdkT7Z2g40atPfmT-6" value="octopus" style="swimlane;fontStyle=0;childLayout=stackLayout;horizontal=1;startSize=26;fillColor=none;horizontalStack=0;resizeParent=1;resizeParentMax=0;resizeLast=0;collapsible=1;marginBottom=0;" parent="yHdRcdkT7Z2g40atPfmT-5" vertex="1">
          <mxGeometry y="26" width="210" height="520" as="geometry" />
        </mxCell>
        <mxCell id="yHdRcdkT7Z2g40atPfmT-7" value="--caller cancer" style="text;strokeColor=none;fillColor=none;align=left;verticalAlign=top;spacingLeft=4;spacingRight=4;overflow=hidden;rotatable=0;points=[[0,0.5],[1,0.5]];portConstraint=eastwest;" parent="yHdRcdkT7Z2g40atPfmT-6" vertex="1">
          <mxGeometry y="26" width="210" height="26" as="geometry" />
        </mxCell>
        <mxCell id="yHdRcdkT7Z2g40atPfmT-8" value="--threads 4" style="text;strokeColor=none;fillColor=none;align=left;verticalAlign=top;spacingLeft=4;spacingRight=4;overflow=hidden;rotatable=0;points=[[0,0.5],[1,0.5]];portConstraint=eastwest;" parent="yHdRcdkT7Z2g40atPfmT-6" vertex="1">
          <mxGeometry y="52" width="210" height="26" as="geometry" />
        </mxCell>
        <mxCell id="yHdRcdkT7Z2g40atPfmT-9" value="--max-reference-cache-footprint 4GB" style="text;strokeColor=none;fillColor=none;align=left;verticalAlign=top;spacingLeft=4;spacingRight=4;overflow=hidden;rotatable=0;points=[[0,0.5],[1,0.5]];portConstraint=eastwest;" parent="yHdRcdkT7Z2g40atPfmT-6" vertex="1">
          <mxGeometry y="78" width="210" height="26" as="geometry" />
        </mxCell>
        <mxCell id="yHdRcdkT7Z2g40atPfmT-10" value="--target-read-buffer-footprint 6GB" style="text;strokeColor=none;fillColor=none;align=left;verticalAlign=top;spacingLeft=4;spacingRight=4;overflow=hidden;rotatable=0;points=[[0,0.5],[1,0.5]];portConstraint=eastwest;" parent="yHdRcdkT7Z2g40atPfmT-6" vertex="1">
          <mxGeometry y="104" width="210" height="26" as="geometry" />
        </mxCell>
        <mxCell id="yHdRcdkT7Z2g40atPfmT-11" value="--ignore-unmapped-contigs" style="text;strokeColor=none;fillColor=none;align=left;verticalAlign=top;spacingLeft=4;spacingRight=4;overflow=hidden;rotatable=0;points=[[0,0.5],[1,0.5]];portConstraint=eastwest;" parent="yHdRcdkT7Z2g40atPfmT-6" vertex="1">
          <mxGeometry y="130" width="210" height="26" as="geometry" />
        </mxCell>
        <mxCell id="yHdRcdkT7Z2g40atPfmT-12" value="--somatics-only" style="text;strokeColor=none;fillColor=none;align=left;verticalAlign=top;spacingLeft=4;spacingRight=4;overflow=hidden;rotatable=0;points=[[0,0.5],[1,0.5]];portConstraint=eastwest;" parent="yHdRcdkT7Z2g40atPfmT-6" vertex="1">
          <mxGeometry y="156" width="210" height="26" as="geometry" />
        </mxCell>
        <mxCell id="yHdRcdkT7Z2g40atPfmT-13" value="--phasing-level minimal" style="text;strokeColor=none;fillColor=none;align=left;verticalAlign=top;spacingLeft=4;spacingRight=4;overflow=hidden;rotatable=0;points=[[0,0.5],[1,0.5]];portConstraint=eastwest;" parent="yHdRcdkT7Z2g40atPfmT-6" vertex="1">
          <mxGeometry y="182" width="210" height="26" as="geometry" />
        </mxCell>
        <mxCell id="yHdRcdkT7Z2g40atPfmT-14" value="--legacy" style="text;strokeColor=none;fillColor=none;align=left;verticalAlign=top;spacingLeft=4;spacingRight=4;overflow=hidden;rotatable=0;points=[[0,0.5],[1,0.5]];portConstraint=eastwest;" parent="yHdRcdkT7Z2g40atPfmT-6" vertex="1">
          <mxGeometry y="208" width="210" height="26" as="geometry" />
        </mxCell>
        <mxCell id="yHdRcdkT7Z2g40atPfmT-15" value="--annotations AD ADP AF SB" style="text;strokeColor=none;fillColor=none;align=left;verticalAlign=top;spacingLeft=4;spacingRight=4;overflow=hidden;rotatable=0;points=[[0,0.5],[1,0.5]];portConstraint=eastwest;" parent="yHdRcdkT7Z2g40atPfmT-6" vertex="1">
          <mxGeometry y="234" width="210" height="26" as="geometry" />
        </mxCell>
        <mxCell id="yHdRcdkT7Z2g40atPfmT-16" value="--somatic-filter-expression &quot;QUAL &lt; 2 | GQ &lt; 20 | MQ &lt; 30 | SMQ &lt; 40 | SD &gt; 0.9 | BQ &lt; 20 | DP &lt; 3 | MF &gt; 0.2 | NC &gt; 5 | FRF &gt; 0.5 | AD &lt; -1 | AF &lt; -1 | ADP &gt; 100000000 | SB &lt; -1 &quot;" style="text;strokeColor=none;fillColor=none;align=left;verticalAlign=top;spacingLeft=4;spacingRight=4;overflow=hidden;rotatable=0;points=[[0,0.5],[1,0.5]];portConstraint=eastwest;" parent="yHdRcdkT7Z2g40atPfmT-6" vertex="1">
          <mxGeometry y="260" width="210" height="26" as="geometry" />
        </mxCell>
        <mxCell id="yHdRcdkT7Z2g40atPfmT-17" value="--working-directory {{ temp_dir }}" style="text;strokeColor=none;fillColor=none;align=left;verticalAlign=top;spacingLeft=4;spacingRight=4;overflow=hidden;rotatable=0;points=[[0,0.5],[1,0.5]];portConstraint=eastwest;" parent="yHdRcdkT7Z2g40atPfmT-6" vertex="1">
          <mxGeometry y="286" width="210" height="26" as="geometry" />
        </mxCell>
        <mxCell id="yHdRcdkT7Z2g40atPfmT-18" value="--reference &quot;{{ constants.phoenix.reference_fasta }}&quot;" style="text;strokeColor=none;fillColor=none;align=left;verticalAlign=top;spacingLeft=4;spacingRight=4;overflow=hidden;rotatable=0;points=[[0,0.5],[1,0.5]];portConstraint=eastwest;" parent="yHdRcdkT7Z2g40atPfmT-6" vertex="1">
          <mxGeometry y="312" width="210" height="26" as="geometry" />
        </mxCell>
        <mxCell id="yHdRcdkT7Z2g40atPfmT-19" value="--regions-file &quot;{{ loop.index }}.bed&quot;" style="text;strokeColor=none;fillColor=none;align=left;verticalAlign=top;spacingLeft=4;spacingRight=4;overflow=hidden;rotatable=0;points=[[0,0.5],[1,0.5]];portConstraint=eastwest;" parent="yHdRcdkT7Z2g40atPfmT-6" vertex="1">
          <mxGeometry y="338" width="210" height="26" as="geometry" />
        </mxCell>
        <mxCell id="yHdRcdkT7Z2g40atPfmT-20" value="--skip-regions-file {{ constants.phoenix.black_list }}" style="text;strokeColor=none;fillColor=none;align=left;verticalAlign=top;spacingLeft=4;spacingRight=4;overflow=hidden;rotatable=0;points=[[0,0.5],[1,0.5]];portConstraint=eastwest;" parent="yHdRcdkT7Z2g40atPfmT-6" vertex="1">
          <mxGeometry y="364" width="210" height="26" as="geometry" />
        </mxCell>
        <mxCell id="yHdRcdkT7Z2g40atPfmT-21" value="--reads &quot;{{ normal_bam }}&quot; &quot;{{ tumor_bam }}&quot;" style="text;strokeColor=none;fillColor=none;align=left;verticalAlign=top;spacingLeft=4;spacingRight=4;overflow=hidden;rotatable=0;points=[[0,0.5],[1,0.5]];portConstraint=eastwest;" parent="yHdRcdkT7Z2g40atPfmT-6" vertex="1">
          <mxGeometry y="390" width="210" height="26" as="geometry" />
        </mxCell>
        <mxCell id="yHdRcdkT7Z2g40atPfmT-22" value="--normal-sample &quot;{{ pair.normal.rgsm }}&quot;" style="text;strokeColor=none;fillColor=none;align=left;verticalAlign=top;spacingLeft=4;spacingRight=4;overflow=hidden;rotatable=0;points=[[0,0.5],[1,0.5]];portConstraint=eastwest;" parent="yHdRcdkT7Z2g40atPfmT-6" vertex="1">
          <mxGeometry y="416" width="210" height="26" as="geometry" />
        </mxCell>
        <mxCell id="yHdRcdkT7Z2g40atPfmT-23" value="--temp-directory-prefix &quot;{{ loop.index }}&quot;" style="text;strokeColor=none;fillColor=none;align=left;verticalAlign=top;spacingLeft=4;spacingRight=4;overflow=hidden;rotatable=0;points=[[0,0.5],[1,0.5]];portConstraint=eastwest;" parent="yHdRcdkT7Z2g40atPfmT-6" vertex="1">
          <mxGeometry y="442" width="210" height="26" as="geometry" />
        </mxCell>
        <mxCell id="yHdRcdkT7Z2g40atPfmT-24" value="--bamout &quot;{{ loop.index }}.realigned.bam&quot;" style="text;strokeColor=none;fillColor=none;align=left;verticalAlign=top;spacingLeft=4;spacingRight=4;overflow=hidden;rotatable=0;points=[[0,0.5],[1,0.5]];portConstraint=eastwest;" parent="yHdRcdkT7Z2g40atPfmT-6" vertex="1">
          <mxGeometry y="468" width="210" height="26" as="geometry" />
        </mxCell>
        <mxCell id="yHdRcdkT7Z2g40atPfmT-25" value="--output &quot;{{ loop.index }}.octopus.vcf&quot;" style="text;strokeColor=none;fillColor=none;align=left;verticalAlign=top;spacingLeft=4;spacingRight=4;overflow=hidden;rotatable=0;points=[[0,0.5],[1,0.5]];portConstraint=eastwest;" parent="yHdRcdkT7Z2g40atPfmT-6" vertex="1">
          <mxGeometry y="494" width="210" height="26" as="geometry" />
        </mxCell>
        <mxCell id="yHdRcdkT7Z2g40atPfmT-26" value="octopus_merge_chunks" style="swimlane;fontStyle=1;childLayout=stackLayout;horizontal=1;startSize=26;fillColor=none;horizontalStack=0;resizeParent=1;resizeParentMax=0;resizeLast=0;collapsible=1;marginBottom=0;direction=east;" parent="1" vertex="1">
          <mxGeometry x="560" y="344" width="210" height="338" as="geometry">
            <mxRectangle x="270" y="344" width="90" height="26" as="alternateBounds" />
          </mxGeometry>
        </mxCell>
        <mxCell id="yHdRcdkT7Z2g40atPfmT-27" value="bcftools concat" style="swimlane;fontStyle=0;childLayout=stackLayout;horizontal=1;startSize=26;horizontalStack=0;resizeParent=1;resizeParentMax=0;resizeLast=0;collapsible=1;marginBottom=0;" parent="yHdRcdkT7Z2g40atPfmT-26" vertex="1">
          <mxGeometry y="26" width="210" height="312" as="geometry" />
        </mxCell>
        <mxCell id="yHdRcdkT7Z2g40atPfmT-28" value="--output-type z" style="text;strokeColor=none;fillColor=none;align=left;verticalAlign=top;spacingLeft=4;spacingRight=4;overflow=hidden;rotatable=0;points=[[0,0.5],[1,0.5]];portConstraint=eastwest;" parent="yHdRcdkT7Z2g40atPfmT-27" vertex="1">
          <mxGeometry y="26" width="210" height="26" as="geometry" />
        </mxCell>
        <mxCell id="yHdRcdkT7Z2g40atPfmT-29" style="edgeStyle=orthogonalEdgeStyle;rounded=0;orthogonalLoop=1;jettySize=auto;html=1;exitX=1;exitY=0.5;exitDx=0;exitDy=0;entryX=1;entryY=0.5;entryDx=0;entryDy=0;startArrow=ERmany;startFill=0;endArrow=ERmany;endFill=0;" parent="yHdRcdkT7Z2g40atPfmT-27" source="yHdRcdkT7Z2g40atPfmT-30" target="yHdRcdkT7Z2g40atPfmT-36" edge="1">
          <mxGeometry relative="1" as="geometry">
            <Array as="points">
              <mxPoint x="230" y="65" />
              <mxPoint x="230" y="195" />
            </Array>
          </mxGeometry>
        </mxCell>
        <mxCell id="yHdRcdkT7Z2g40atPfmT-30" value="--output &quot;{{ temp_dir }}/{{ pair.name }}.{{ aligner }}.octopus.legacy.all.uns.vcf.gz&quot;" style="text;strokeColor=none;fillColor=none;align=left;verticalAlign=top;spacingLeft=4;spacingRight=4;overflow=hidden;rotatable=0;points=[[0,0.5],[1,0.5]];portConstraint=eastwest;" parent="yHdRcdkT7Z2g40atPfmT-27" vertex="1">
          <mxGeometry y="52" width="210" height="26" as="geometry" />
        </mxCell>
        <mxCell id="yHdRcdkT7Z2g40atPfmT-31" value="&quot;{{ temp_dir }}/{{ loop.index }}.octopus.legacy.vcf&quot;" style="text;strokeColor=none;fillColor=none;align=left;verticalAlign=top;spacingLeft=4;spacingRight=4;overflow=hidden;rotatable=0;points=[[0,0.5],[1,0.5]];portConstraint=eastwest;" parent="yHdRcdkT7Z2g40atPfmT-27" vertex="1">
          <mxGeometry y="78" width="210" height="26" as="geometry" />
        </mxCell>
        <mxCell id="yHdRcdkT7Z2g40atPfmT-32" value="bcftools sort" style="swimlane;fontStyle=0;childLayout=stackLayout;horizontal=1;startSize=26;fillColor=none;horizontalStack=0;resizeParent=1;resizeParentMax=0;resizeLast=0;collapsible=1;marginBottom=0;" parent="yHdRcdkT7Z2g40atPfmT-27" vertex="1">
          <mxGeometry y="104" width="210" height="208" as="geometry" />
        </mxCell>
        <mxCell id="yHdRcdkT7Z2g40atPfmT-33" value="--output-type z" style="text;strokeColor=none;fillColor=none;align=left;verticalAlign=top;spacingLeft=4;spacingRight=4;overflow=hidden;rotatable=0;points=[[0,0.5],[1,0.5]];portConstraint=eastwest;" parent="yHdRcdkT7Z2g40atPfmT-32" vertex="1">
          <mxGeometry y="26" width="210" height="26" as="geometry" />
        </mxCell>
        <mxCell id="yHdRcdkT7Z2g40atPfmT-34" style="edgeStyle=orthogonalEdgeStyle;rounded=0;orthogonalLoop=1;jettySize=auto;html=1;exitX=0;exitY=0.5;exitDx=0;exitDy=0;entryX=0;entryY=0.5;entryDx=0;entryDy=0;startArrow=ERmany;startFill=0;endArrow=ERmany;endFill=0;" parent="yHdRcdkT7Z2g40atPfmT-32" source="yHdRcdkT7Z2g40atPfmT-35" target="yHdRcdkT7Z2g40atPfmT-40" edge="1">
          <mxGeometry relative="1" as="geometry" />
        </mxCell>
        <mxCell id="yHdRcdkT7Z2g40atPfmT-35" value="--output-file &quot;{{ all_vcf }}&quot;" style="text;strokeColor=none;fillColor=none;align=left;verticalAlign=top;spacingLeft=4;spacingRight=4;overflow=hidden;rotatable=0;points=[[0,0.5],[1,0.5]];portConstraint=eastwest;" parent="yHdRcdkT7Z2g40atPfmT-32" vertex="1">
          <mxGeometry y="52" width="210" height="26" as="geometry" />
        </mxCell>
        <mxCell id="yHdRcdkT7Z2g40atPfmT-36" value="&quot;{{ temp_dir }}/{{ pair.name }}.{{ aligner }}.octopus.legacy.all.uns.vcf.gz&quot;" style="text;strokeColor=none;fillColor=none;align=left;verticalAlign=top;spacingLeft=4;spacingRight=4;overflow=hidden;rotatable=0;points=[[0,0.5],[1,0.5]];portConstraint=eastwest;" parent="yHdRcdkT7Z2g40atPfmT-32" vertex="1">
          <mxGeometry y="78" width="210" height="26" as="geometry" />
        </mxCell>
        <mxCell id="yHdRcdkT7Z2g40atPfmT-37" value="bcftools index" style="swimlane;fontStyle=0;childLayout=stackLayout;horizontal=1;startSize=26;fillColor=none;horizontalStack=0;resizeParent=1;resizeParentMax=0;resizeLast=0;collapsible=1;marginBottom=0;" parent="yHdRcdkT7Z2g40atPfmT-32" vertex="1">
          <mxGeometry y="104" width="210" height="104" as="geometry" />
        </mxCell>
        <mxCell id="yHdRcdkT7Z2g40atPfmT-38" value="--tbi" style="text;strokeColor=none;fillColor=none;align=left;verticalAlign=top;spacingLeft=4;spacingRight=4;overflow=hidden;rotatable=0;points=[[0,0.5],[1,0.5]];portConstraint=eastwest;" parent="yHdRcdkT7Z2g40atPfmT-37" vertex="1">
          <mxGeometry y="26" width="210" height="26" as="geometry" />
        </mxCell>
        <mxCell id="yHdRcdkT7Z2g40atPfmT-39" value="--force" style="text;strokeColor=none;fillColor=none;align=left;verticalAlign=top;spacingLeft=4;spacingRight=4;overflow=hidden;rotatable=0;points=[[0,0.5],[1,0.5]];portConstraint=eastwest;" parent="yHdRcdkT7Z2g40atPfmT-37" vertex="1">
          <mxGeometry y="52" width="210" height="26" as="geometry" />
        </mxCell>
        <mxCell id="yHdRcdkT7Z2g40atPfmT-40" value="&quot;{{ all_vcf }}&quot;" style="text;strokeColor=none;fillColor=none;align=left;verticalAlign=top;spacingLeft=4;spacingRight=4;overflow=hidden;rotatable=0;points=[[0,0.5],[1,0.5]];portConstraint=eastwest;" parent="yHdRcdkT7Z2g40atPfmT-37" vertex="1">
          <mxGeometry y="78" width="210" height="26" as="geometry" />
        </mxCell>
        <mxCell id="yHdRcdkT7Z2g40atPfmT-41" style="edgeStyle=orthogonalEdgeStyle;rounded=0;orthogonalLoop=1;jettySize=auto;html=1;exitX=0;exitY=0.5;exitDx=0;exitDy=0;entryX=1;entryY=0.5;entryDx=0;entryDy=0;startArrow=ERmany;startFill=0;endArrow=ERmany;endFill=0;" parent="1" source="yHdRcdkT7Z2g40atPfmT-31" target="yHdRcdkT7Z2g40atPfmT-25" edge="1">
          <mxGeometry relative="1" as="geometry" />
        </mxCell>
        <mxCell id="yHdRcdkT7Z2g40atPfmT-42" value="octopus_filter_variants" style="swimlane;fontStyle=1;childLayout=stackLayout;horizontal=1;startSize=26;fillColor=none;horizontalStack=0;resizeParent=1;resizeParentMax=0;resizeLast=0;collapsible=1;marginBottom=0;direction=east;" parent="1" vertex="1">
          <mxGeometry x="850" y="370" width="210" height="260" as="geometry">
            <mxRectangle x="270" y="344" width="90" height="26" as="alternateBounds" />
          </mxGeometry>
        </mxCell>
        <mxCell id="yHdRcdkT7Z2g40atPfmT-43" value="bcftools filter" style="swimlane;fontStyle=0;childLayout=stackLayout;horizontal=1;startSize=26;fillColor=none;horizontalStack=0;resizeParent=1;resizeParentMax=0;resizeLast=0;collapsible=1;marginBottom=0;" parent="yHdRcdkT7Z2g40atPfmT-42" vertex="1">
          <mxGeometry y="26" width="210" height="234" as="geometry" />
        </mxCell>
        <mxCell id="yHdRcdkT7Z2g40atPfmT-44" value="--output-type z" style="text;strokeColor=none;fillColor=none;align=left;verticalAlign=top;spacingLeft=4;spacingRight=4;overflow=hidden;rotatable=0;points=[[0,0.5],[1,0.5]];portConstraint=eastwest;" parent="yHdRcdkT7Z2g40atPfmT-43" vertex="1">
          <mxGeometry y="26" width="210" height="26" as="geometry" />
        </mxCell>
        <mxCell id="yHdRcdkT7Z2g40atPfmT-45" value="--include &#39;FILTER == &quot;PASS&quot;&#39;" style="text;strokeColor=none;fillColor=none;align=left;verticalAlign=top;spacingLeft=4;spacingRight=4;overflow=hidden;rotatable=0;points=[[0,0.5],[1,0.5]];portConstraint=eastwest;" parent="yHdRcdkT7Z2g40atPfmT-43" vertex="1">
          <mxGeometry y="52" width="210" height="26" as="geometry" />
        </mxCell>
        <mxCell id="yHdRcdkT7Z2g40atPfmT-46" value="&quot;{{ all_vcf }}&quot;" style="text;strokeColor=none;fillColor=none;align=left;verticalAlign=top;spacingLeft=4;spacingRight=4;overflow=hidden;rotatable=0;points=[[0,0.5],[1,0.5]];portConstraint=eastwest;" parent="yHdRcdkT7Z2g40atPfmT-43" vertex="1">
          <mxGeometry y="78" width="210" height="26" as="geometry" />
        </mxCell>
        <mxCell id="yHdRcdkT7Z2g40atPfmT-47" value="&gt; &quot;{{ pass_vcf }}&quot;" style="text;strokeColor=none;fillColor=none;align=left;verticalAlign=top;spacingLeft=4;spacingRight=4;overflow=hidden;rotatable=0;points=[[0,0.5],[1,0.5]];portConstraint=eastwest;" parent="yHdRcdkT7Z2g40atPfmT-43" vertex="1">
          <mxGeometry y="104" width="210" height="26" as="geometry" />
        </mxCell>
        <mxCell id="yHdRcdkT7Z2g40atPfmT-48" value="bcftools index" style="swimlane;fontStyle=0;childLayout=stackLayout;horizontal=1;startSize=26;fillColor=none;horizontalStack=0;resizeParent=1;resizeParentMax=0;resizeLast=0;collapsible=1;marginBottom=0;" parent="yHdRcdkT7Z2g40atPfmT-43" vertex="1">
          <mxGeometry y="130" width="210" height="104" as="geometry" />
        </mxCell>
        <mxCell id="yHdRcdkT7Z2g40atPfmT-49" value="--tbi" style="text;strokeColor=none;fillColor=none;align=left;verticalAlign=top;spacingLeft=4;spacingRight=4;overflow=hidden;rotatable=0;points=[[0,0.5],[1,0.5]];portConstraint=eastwest;" parent="yHdRcdkT7Z2g40atPfmT-48" vertex="1">
          <mxGeometry y="26" width="210" height="26" as="geometry" />
        </mxCell>
        <mxCell id="yHdRcdkT7Z2g40atPfmT-50" value="--force" style="text;strokeColor=none;fillColor=none;align=left;verticalAlign=top;spacingLeft=4;spacingRight=4;overflow=hidden;rotatable=0;points=[[0,0.5],[1,0.5]];portConstraint=eastwest;" parent="yHdRcdkT7Z2g40atPfmT-48" vertex="1">
          <mxGeometry y="52" width="210" height="26" as="geometry" />
        </mxCell>
        <mxCell id="yHdRcdkT7Z2g40atPfmT-51" value="&quot;{{ pass_vcf }}&quot;" style="text;strokeColor=none;fillColor=none;align=left;verticalAlign=top;spacingLeft=4;spacingRight=4;overflow=hidden;rotatable=0;points=[[0,0.5],[1,0.5]];portConstraint=eastwest;" parent="yHdRcdkT7Z2g40atPfmT-48" vertex="1">
          <mxGeometry y="78" width="210" height="26" as="geometry" />
        </mxCell>
        <mxCell id="yHdRcdkT7Z2g40atPfmT-52" style="edgeStyle=orthogonalEdgeStyle;rounded=0;orthogonalLoop=1;jettySize=auto;html=1;exitX=1;exitY=0.5;exitDx=0;exitDy=0;entryX=0;entryY=0.5;entryDx=0;entryDy=0;startArrow=ERmany;startFill=0;endArrow=ERmany;endFill=0;" parent="1" source="yHdRcdkT7Z2g40atPfmT-35" target="yHdRcdkT7Z2g40atPfmT-46" edge="1">
          <mxGeometry relative="1" as="geometry" />
        </mxCell>
      </root>
    </mxGraphModel>
  </diagram>
</mxfile>
